<svg xmlns="http://www.w3.org/2000/svg" viewBox="0 0 1086 1088" width="327" height="328">
	<defs>
		<clipPath clipPathUnits="userSpaceOnUse" id="cp1">
			<path d="M-64 -216L1126 -216L1126 1468L-64 1468Z" />
		</clipPath>
	</defs>
	<style>
		tspan { white-space:pre }
		.shp0 { fill: #ffffff } 
		.shp1 { fill: #ff7d24 } 
		.shp2 { fill: #102694 } 
	</style>
	<g id="Page 1" clip-path="url(#cp1)">
		<path id="Path 1" class="shp0" d="M543.25 0.61C842.77 0.61 1085.58 243.88 1085.58 543.97C1085.58 844.05 842.77 1087.32 543.25 1087.32C243.73 1087.32 0.92 844.05 0.92 543.97C0.92 243.88 243.73 0.61 543.25 0.61Z" />
		<path id="Path 2" fill-rule="evenodd" class="shp1" d="M720.44 408.86L720.44 720.49L573.11 720.49L572.47 718.52C610.66 690.75 631.36 667.84 640.23 648.3C648.99 628.99 646.14 612.96 637.2 598.76C632.07 590.59 624.95 583 616.87 575.72C608.74 568.41 599.66 561.42 590.64 554.48L590.63 554.47L590.63 554.47C572.61 540.61 554.86 526.95 545.81 511.2C538.38 498.27 536.75 484.01 545.41 467.22C553.95 450.67 572.57 431.66 605.67 409.05L606.29 408.86L720.44 408.86ZM550.97 408.86L551.6 410.83C524.04 430.62 506.86 447.67 498.1 462.68C489.47 477.44 489.06 490.2 494.98 501.6L494.98 501.61C503.16 517.39 520.34 531.2 537.78 545.23L537.78 545.24L537.79 545.24L537.79 545.24C546.25 552.04 554.78 558.91 562.41 566.13C570.05 573.38 576.72 580.95 581.4 589.11C590.3 604.66 593.63 622.1 582.85 643.45C572.19 664.57 547.64 689.52 500.81 720.31L500.21 720.49L486 720.49L485.39 718.49C526.67 690.62 549.86 667.63 560.82 648.01C571.64 628.64 570.44 612.59 562.97 598.37C558.68 590.22 552.34 582.64 545.02 575.37C537.65 568.07 529.29 561.08 520.99 554.14C512.7 547.22 504.48 540.35 497.4 533.25C490.27 526.1 484.29 518.71 480.56 510.81C474.47 497.9 474.28 483.67 484.58 466.95C494.73 450.47 515.15 431.55 550.33 409.03L550.92 408.86L550.97 408.86ZM523.15 408.86L523.76 410.85C493.77 431.24 476.47 448.52 468.09 463.65C459.83 478.56 460.3 491.37 465.81 503.03C469.52 510.9 475.49 518.27 482.62 525.43C489.8 532.63 498.16 539.62 506.58 546.65C514.75 553.47 522.98 560.35 530.24 567.55C537.54 574.79 543.86 582.36 548.16 590.54C556.26 605.93 557.26 623.37 544.41 644.59C531.72 665.55 505.41 690.22 458.86 720.31L458.27 720.49L370.79 720.49L370.79 408.86L523.15 408.86ZM545.37 720.49L528.1 720.49L527.49 718.5C569.01 689.98 590.46 666.77 599.41 647.05C608.26 627.56 604.82 611.46 596.55 597.01L596.55 597.01L596.54 597C587.18 580.66 569.72 566.61 552.51 552.77L552.5 552.76L552.49 552.75C535.24 538.88 518.25 525.21 510.08 509.45L510.08 509.45C503.51 496.77 504.15 482.6 514.68 466.07C524.92 449.98 544.61 431.61 576.25 410.18C576.62 409.92 577.89 409.15 578.26 408.9L579.51 410.67L579.47 410.7L579.46 410.71C579.15 410.94 577.93 411.7 577.62 411.93C550.41 431.97 535.21 448.99 528.49 463.9C521.78 478.78 523.57 491.59 530.26 503.25L530.26 503.25L530.27 503.26L530.28 503.28C539.35 519.06 557.31 532.88 575.55 546.92L575.57 546.93C584.43 553.75 593.36 560.63 601.36 567.82C609.39 575.05 616.48 582.61 621.62 590.78C631.27 606.13 634.06 623.53 623.43 644.71C612.94 665.65 589.27 690.27 545.99 720.29L545.37 720.49Z" />
		<path id="Path 3" fill-rule="evenodd" class="shp2" d="M543.25 29.77C826.65 29.77 1056.47 260.03 1056.47 543.97C1056.47 827.9 826.65 1058.16 543.25 1058.16C259.85 1058.16 30.03 827.9 30.03 543.97C30.03 260.03 259.85 29.77 543.25 29.77ZM543.25 167.97C336.02 167.97 167.96 336.34 167.96 543.97C167.96 751.59 336.02 919.96 543.25 919.96C750.48 919.96 918.54 751.59 918.54 543.97C918.54 336.34 750.48 167.97 543.25 167.97ZM308.68 771.53L248.23 750.92C206.93 692.15 182.65 620.51 182.65 543.19C182.65 540.7 182.7 538.23 182.75 535.75L217.87 487.92C237.79 550.49 274.61 589.51 320.91 615.32C290.84 665.34 292.08 720.96 308.68 771.53ZM443.61 890.48L401.53 834.38C454.67 834.45 507.81 818.33 545.91 774.14C584.8 810.2 633.27 833.12 698.81 832.62L661.89 884.41C624.73 897.39 584.82 904.47 543.25 904.47C508.69 904.47 475.26 899.58 443.61 890.48ZM791.66 771.53C808.26 720.96 809.51 665.34 779.44 615.32C825.74 589.51 862.56 550.49 882.48 487.92L902.8 515.6C903.49 524.71 903.85 533.91 903.85 543.19C903.85 623.28 877.8 697.28 833.76 757.18L791.66 771.53ZM843.12 396.9C800.19 365.52 747.76 347.24 691 360.53C680.72 308.45 654.98 261.35 601.68 223.12L663.43 202.5C736.86 228.51 799.39 277.65 842.26 341.22L843.12 396.9ZM498.66 223.12C445.36 261.35 419.62 308.45 409.35 360.53C352.59 347.24 300.15 365.52 257.22 396.9L258.37 323L258.02 322.2C301.47 265.99 361.09 222.98 429.89 200.15L498.66 223.12Z" />
		<path id="Path 4" fill-rule="evenodd" class="shp0" d="M840.03 869.55C837.73 867.34 835.18 866.54 832.39 867.19C831.28 867.5 830.08 868.01 828.81 868.71C827.74 869.38 826.49 870.32 825.04 871.53C823.14 873.13 821.8 875.03 821.03 877.22C820.24 879.41 820.11 881.73 820.6 884.16C821.07 886.65 821.89 889.01 823.08 891.26C824.26 893.59 825.85 895.95 827.86 898.34C829.04 899.76 830.19 900.9 831.32 901.8C832.46 902.69 833.29 903.27 833.81 903.54C834.29 903.82 835.08 904.2 836.16 904.69C839.07 905.94 842.2 906.31 845.57 905.81C847.22 905.5 848.82 904.97 850.36 904.22C851.84 903.51 853.4 902.47 855.03 901.1L858.17 898.11C858.59 897.7 859.07 897.12 859.64 896.41C860.2 895.71 860.73 895 861.23 894.28L853.76 885.37L843.85 893.7L835.88 884.18L859.5 864.33L881.43 890.51C877.35 895.49 873.32 900.07 869.34 904.27C867.86 905.82 866.13 907.52 864.16 909.41C862.21 911.3 860.46 912.89 858.93 914.18C856.44 916.27 853.88 917.92 851.25 919.1C848.63 920.38 845.83 921.3 842.91 921.84C837.71 922.72 832.52 922.23 827.32 920.36C825.04 919.4 822.52 918 819.76 916.15C817.32 914.34 815.07 912.21 813.03 909.77C810.19 906.38 808 902.79 806.48 899.05C804.92 895.34 804.02 891.23 803.77 886.73C803.54 877.89 808.02 869.6 817.21 861.88C820.91 858.77 824.28 856.32 827.33 854.53C830.43 852.77 833.55 851.58 836.71 850.95C842.85 849.63 848.48 852.02 853.6 858.14L840.03 869.55ZM759.24 905.54L803.19 933.94L803.17 933.55L777.37 893.75L790.74 885.04L825.61 938.84L804.95 952.29L760.17 922.91L786.7 964.16L773.16 972.97L738.29 919.17L759.24 905.54ZM715.1 905.65C715.52 907.11 715.84 908.29 716.09 909.21C716.35 910.21 716.32 911.27 715.99 912.39C716 914.23 715.63 916.03 714.9 917.81C714.16 919.59 713.21 921.19 712.08 922.64C710.87 924.13 709.01 925.46 706.49 926.63C705.16 927.26 703.93 927.7 702.81 927.95C701.66 928.29 700.44 928.47 699.14 928.48C696.48 928.49 694.25 928.32 692.47 928C690.68 927.66 688.9 926.95 687.1 925.88C685.74 925.1 684.65 924.08 683.81 922.84C682.92 921.62 682.45 920.97 682.43 920.92L693.2 915.71C694.21 917.32 695.35 918.23 696.59 918.42C697.89 918.66 699.48 918.34 701.33 917.47C702.84 916.77 703.89 915.79 704.49 914.55C705.06 913.37 704.99 912.03 704.29 910.53L715.1 905.65ZM687.87 911.83C686.45 908.77 686.3 905.51 687.43 902.05C688.55 898.59 690.62 896.17 693.62 894.77C695.54 893.87 698.34 893.17 702.01 892.68L709.62 891.31C709.8 891.29 709.95 891.23 710.12 891.16C710.65 890.91 711.02 890.51 711.22 889.96C711.46 889.32 711.46 888.24 711.27 886.7L717.69 883.7C718.74 886.8 718.74 890.16 717.69 893.79C717.17 895.34 716.41 896.74 715.36 898.01C714.92 898.48 714.39 898.95 713.77 899.44C713.15 899.92 712.49 900.33 711.78 900.66L709.14 901.49L706.5 902.05L700.88 902.82L698.49 903.35L696.23 903.91C695.1 904.44 694.41 905.12 694.15 905.96L693.98 908.98L687.87 911.83ZM766.18 974.44L748.21 982.84L738.98 973.34L715.46 984.33L716.97 997.43L700.83 1004.97L696.64 936.13L716.23 926.98L766.18 974.44ZM729.81 963.92L711.15 943.16L710.83 943.31L714.33 971.15L729.81 963.92ZM616.79 960.76L640.8 953.86L674.54 993.89L674.63 993.51L661.57 947.89L676.9 943.49L694.55 1005.15L670.86 1011.95L636.61 970.74L649.95 1017.96L634.43 1022.42L616.79 960.76ZM563.02 945.78L572.94 959.04L561.25 959.57L546.3 946.65L563.02 945.78ZM548.62 965.65L570.21 964.52L598.77 1027.26L578.97 1028.3L573.96 1016.03L548.05 1017.39L544.54 1030.1L526.76 1031.04L548.62 965.65ZM568.98 1003.85L559.45 977.6L559.1 977.62L551.92 1004.75L568.98 1003.85ZM463.57 960.59L490.68 962.97C503.03 964.05 511.93 967.71 517.37 973.93C522.81 980.17 525.02 989.21 523.98 1001.07C523.52 1006.3 522.19 1010.76 519.97 1014.43C517.69 1018.15 514.69 1020.94 510.97 1022.81C503.78 1026.4 495.51 1027.78 486.16 1026.96L457.99 1024.49L460.49 995.85L454.14 995.29L454.76 988.21L461.11 988.76L463.57 960.59ZM476.92 1013.58L485.48 1014.33C489.48 1014.68 493 1014.01 496.06 1012.31C499.11 1010.64 501.42 1008.32 502.98 1005.36C504.48 1002.41 505.38 999.22 505.68 995.82C505.99 992.22 505.48 988.97 504.13 986.06C502.78 983.15 500.74 980.71 498.01 978.75C495.28 976.79 492.29 975.67 489.04 975.38L480.32 974.62L478.95 990.33L485.3 990.88L484.68 997.97L478.33 997.41L476.92 1013.58ZM359.27 929.62L385.07 941.13C389.89 943.27 394.3 946.21 398.32 949.93C402.29 953.65 403.44 958.5 401.76 964.49L401.05 966.31C399.77 969.18 397.74 971.35 394.95 972.83C391.69 974.49 387.55 974.79 382.51 973.77L385.17 975.85L386.92 977.6C388.4 979.04 389.52 980.58 390.28 982.21C391.16 983.77 391.61 985.65 391.64 987.87C391.63 990.12 391.16 992.27 390.24 994.34C385.47 1005.08 375.36 1007.01 359.92 1000.13L333.23 988.22L359.27 929.62ZM365.28 960.17L373.78 963.95C378.42 966.02 381.64 965 383.46 960.91C385.14 957.12 383.57 954.15 378.71 951.99L370.54 948.34L365.28 960.17ZM363.65 988.08C366.23 989.23 368.33 989.49 369.97 988.86C371.54 988.28 372.75 987.18 373.66 985.58C374.12 984.55 374.37 983.37 374.38 982.02C374.33 980.69 373.95 979.49 373.27 978.41C372.6 977.32 371.71 976.54 370.62 976.05L360.28 971.43L354.66 984.07L363.65 988.08ZM324.3 908.53L310.46 929.88L328.59 941.68L342.43 920.33L357.36 930.04L322.48 983.84L307.55 974.13L321.88 952.02L303.61 940.13L289.28 962.24L274.41 952.56L309.28 898.76L324.3 908.53ZM234.32 896.6L248.35 907.58C246.93 909.4 246.24 911.44 246.28 913.72C246.28 914.85 246.63 916.03 247.33 917.25C247.94 918.48 248.92 919.63 250.27 920.68C252.65 922.54 254.91 923.63 257.05 923.96C259.43 924.17 261.2 923.53 262.37 922.04C263.28 920.86 263.69 919.68 263.57 918.48C263.56 917.34 263.19 916.04 262.47 914.56L261.56 912.96L260.19 910.99L257.48 907.4C254.61 903.88 252.2 900.53 250.25 897.35C248.28 894.24 247.19 890.98 246.99 887.59C246.77 884.19 247.92 880.89 250.43 877.67C254.57 872.35 259.64 869.9 265.61 870.31C271.6 870.7 277.89 873.49 284.5 878.66C289.25 882.38 292.68 886.19 294.79 890.09C296.69 893.63 297.45 897.16 297.09 900.7C296.82 902.22 296.3 903.76 295.51 905.32C294.75 906.89 293.66 908.58 292.24 910.4L278.35 899.53C279.15 898.5 279.71 897.55 280.02 896.67C280.25 895.79 280.27 894.8 280.09 893.69C279.75 891.63 278.49 889.74 276.3 888.03C274.58 886.68 272.65 885.96 270.49 885.84C268.65 885.91 267.21 886.59 266.21 887.88C264.24 890.4 265.57 894.51 270.17 900.22C274.73 905.89 277.7 909.83 279.06 912.02C280.8 914.51 281.76 917.47 281.99 920.95C282.15 922.66 281.97 924.43 281.43 926.26C280.86 928.14 279.81 930.06 278.28 932.02C276.9 933.79 275.42 935.26 273.83 936.44C272.26 937.61 270.46 938.47 268.44 939.05C264.71 939.98 260.67 939.74 256.29 938.34C251.82 936.96 247.43 934.58 243.11 931.19C235.8 925.48 231.35 919.74 229.77 914C229.03 911.07 229.05 908.16 229.83 905.24C230.61 902.32 232.1 899.44 234.32 896.6ZM1003.89 405.85L986.87 397.11L984 388.43L999.44 392.39L1003.89 405.85ZM925.78 400.24L911.44 400.16L906.87 386.37L976.86 387.96L981.89 403.16L926.56 445.85L921.88 431.72L933.46 423.44L925.78 400.24ZM937.75 400.15L943.06 416.19L965.24 400.13L937.75 400.15ZM904.71 317.45L902.83 313.68L913.01 308.58L914.9 312.35L937.72 300.91L950.8 327.02C955.25 335.9 955.21 344.04 950.73 351.44C947.39 356.86 942.06 361.4 934.73 365.07C926.79 369.05 919.27 370.78 912.15 370.27C902.81 369.52 895.96 364.8 891.6 356.08L878.76 330.45L904.71 317.45ZM933.65 318.16L920.99 324.5L927.82 338.14L917.63 343.24L910.8 329.61L895.03 337.51L901.04 349.5C903.37 354.15 907.21 356.58 912.52 356.78C916.93 356.98 921.96 355.67 927.6 352.84C935.19 349.03 939.68 344.8 941.05 340.14C941.93 337.08 941.44 333.71 939.58 329.99L933.65 318.16ZM854.58 258.77L863.13 251.52L880.94 272.54L853.73 295.59L847.79 288.58L853.16 282.15C849.07 282.04 845.91 281.67 843.67 281.01C839.43 279.71 835.59 277.02 832.14 272.96C826.67 266.5 824.33 259.29 825.15 251.31C826.01 242.48 830.64 234.49 839.03 227.39C846.47 221.08 854.31 217.85 862.52 217.69C871.78 217.58 879.8 221.5 886.57 229.49C892.51 236.5 895.27 243.74 894.87 251.22C894.53 257.53 892.33 262.42 888.28 265.85L879.37 255.34C880.81 254.12 881.66 251.88 881.94 248.59C882.32 244.41 881.12 240.69 878.34 237.4C874.86 233.29 870.63 231.14 865.67 230.93C859.94 230.72 854.05 233.18 848.04 238.28C841.74 243.61 838.43 249.03 838.12 254.55C837.81 259.04 839.43 263.39 843 267.6C845.62 270.69 848.85 272.49 852.67 272.97C856.49 273.46 860.42 272.6 864.44 270.4L854.58 258.77ZM844.31 189.27L803.01 240.68L792.27 232.05L800.84 178.58L771.22 215.14L761.19 207.08L802.49 155.67L813.82 164.77L805.36 216.9L834.27 181.21L844.31 189.27ZM776.26 116.56L757.99 122.13L749.85 117.87L763.74 110L776.26 116.56ZM713.19 143.29C717.55 134.97 722.91 129.22 729.25 126.06C734.25 123.55 739.69 122.72 745.6 123.55C749.87 124.12 753.83 125.36 757.48 127.28C761.17 129.21 764.38 131.68 767.15 134.72C771.17 139.16 773.59 144.13 774.39 149.61C775.41 156.63 773.74 164.32 769.35 172.69C765.01 180.98 759.65 186.74 753.25 189.98C748.28 192.47 742.8 193.34 736.85 192.59C732.66 192.04 728.76 190.83 725.18 188.95C721.43 186.99 718.16 184.48 715.39 181.44C711.38 176.99 708.97 172.03 708.14 166.57C707.15 159.39 708.83 151.63 713.19 143.29ZM725.39 149.67C721.53 157.04 720.49 163.46 722.25 168.94C723.6 173.12 726.4 176.33 730.63 178.55C734.74 180.7 738.9 181.14 743.11 179.86C748.61 178.18 753.29 173.67 757.14 166.3C760.99 158.96 762.02 152.57 760.24 147.16C758.87 142.99 756.13 139.85 752.02 137.69C747.89 135.53 743.71 135.05 739.45 136.28C733.9 137.92 729.2 142.39 725.39 149.67ZM635.31 150.76L656.87 88.43L687.27 98.95C694.08 101.3 698.53 104.92 700.6 109.78C702.17 113.48 702.25 117.4 700.83 121.49C699.48 125.38 697.51 128.14 694.9 129.74C693.32 130.7 691.3 131.3 688.82 131.53C691.92 134.19 693.75 137.19 694.34 140.55C694.87 143.39 694.54 146.57 693.34 150.04C692.45 152.59 691.17 154.77 689.49 156.62C687.8 158.45 685.82 159.92 683.5 161.01C680.65 162.31 678.03 162.96 675.62 162.95C672.23 162.94 667.61 161.93 661.72 159.89L635.31 150.76ZM657.31 127.64L651.54 144.31L667.53 149.85C670.8 150.98 673.56 151.1 675.78 150.22C677.99 149.35 679.65 147.31 680.76 144.12C681.62 141.63 681.36 139.45 680 137.59C678.64 135.72 676.62 134.33 673.98 133.41L657.31 127.64ZM665.66 103.49L660.97 117.05L676.24 122.33C679.03 123.3 681.39 123.53 683.3 123.03C685.5 122.43 687.02 120.94 687.84 118.57C688.68 116.14 688.48 114.14 687.25 112.61C685.99 111.08 683.78 109.76 680.59 108.66L665.66 103.49ZM580.2 56.89L589.59 71.08L579.34 70.28L574.06 62.31L567.59 69.37L557.34 68.57L568.84 56.01L580.2 56.89ZM573.2 148.13L572.37 158.74L560.83 157.84L561.66 147.23L573.2 148.13ZM538.8 106.77C539.53 97.41 542.19 90.01 546.77 84.61C550.38 80.33 555.06 77.42 560.82 75.86C564.96 74.71 569.09 74.29 573.2 74.61C577.35 74.93 581.28 75.94 585.02 77.65C590.46 80.14 594.65 83.76 597.54 88.48C601.25 94.53 602.73 102.26 602 111.68C601.28 121.01 598.61 128.42 594.01 133.91C590.42 138.16 585.72 141.11 579.96 142.77C575.89 143.91 571.83 144.33 567.8 144.02C563.58 143.69 559.59 142.68 555.85 140.97C550.41 138.46 546.23 134.85 543.33 130.15C539.59 123.95 538.07 116.15 538.8 106.77ZM552.53 107.83C551.88 116.12 553.45 122.43 557.23 126.78C560.12 130.09 563.95 131.94 568.71 132.31C573.34 132.67 577.34 131.43 580.7 128.61C585.1 124.89 587.62 118.9 588.26 110.61C588.9 102.35 587.34 96.07 583.57 91.8C580.67 88.51 576.91 86.69 572.29 86.33C567.63 85.97 563.61 87.18 560.18 89.98C555.71 93.68 553.16 99.64 552.53 107.83ZM470.34 147.64L461.85 82.24L493.75 78.1C500.89 77.17 506.48 78.42 510.51 81.85C513.57 84.46 515.38 87.93 515.94 92.23C516.47 96.32 515.93 99.66 514.31 102.26C513.32 103.83 511.78 105.26 509.66 106.57C513.62 107.57 516.6 109.44 518.62 112.19C520.37 114.49 521.49 117.48 521.96 121.12C522.31 123.8 522.13 126.32 521.45 128.73C520.76 131.12 519.64 133.32 518.05 135.33C516.08 137.76 514.02 139.51 511.86 140.58C508.83 142.08 504.23 143.24 498.06 144.04L470.34 147.64ZM479.72 117.15L482 134.64L498.77 132.46C502.21 132.01 504.73 130.9 506.32 129.12C507.91 127.35 508.49 124.79 508.06 121.43C507.72 118.82 506.52 116.98 504.47 115.92C502.42 114.86 499.99 114.51 497.22 114.87L479.72 117.15ZM476.43 91.8L478.28 106.03L494.3 103.95C497.23 103.57 499.45 102.73 500.93 101.42C502.64 99.9 503.33 97.9 503.01 95.41C502.68 92.86 501.61 91.16 499.82 90.34C498.01 89.52 495.44 89.33 492.1 89.77L476.43 91.8ZM401.36 120.44C399.31 117.81 397.36 116.04 395.54 115.14C392.14 113.41 388.17 113.47 383.63 115.3C379.66 116.9 376.91 119.61 375.41 123.45C373.37 128.55 373.94 135.04 377.09 142.88C379.5 148.84 382.61 153.2 386.43 155.96C390.81 159.09 395.56 159.62 400.66 157.56C404.18 156.15 406.73 153.98 408.29 151.06C409.85 148.13 410.26 144.68 409.52 140.69L422.29 135.54C423.74 143.03 423.12 149.59 420.42 155.22C417.48 161.37 412.29 165.94 404.85 168.94C396.51 172.3 388.73 172.27 381.49 168.82C373.92 165.24 368.07 158.29 363.92 148.01C359.75 137.65 359.23 128.49 362.35 120.48C365.26 113 370.81 107.59 378.99 104.29C387.4 100.9 395.1 100.67 402.07 103.61C407.98 106.1 411.99 109.99 414.13 115.29L401.36 120.44ZM356.46 208.1L346.48 213.97L341.09 204.79L351.07 198.93L356.46 208.1ZM325.87 191.57L328.82 205.61L316.29 212.97L303.13 144.21L316.94 136.1L370.3 181.22L357.47 188.77L346.94 179.19L325.87 191.57ZM323.27 179.89L337.84 171.32L317.47 153.01L323.27 179.89ZM279.41 228.66L305.04 208.07L312.51 217.36L276.14 246.58L234.84 195.17L245.58 186.54L279.41 228.66ZM195.75 236.33L229.68 262.41C236.44 267.61 239.99 273.39 240.32 279.77C240.68 285.84 238.21 292.32 232.93 299.19C230.64 302.17 228.1 304.62 225.29 306.57C221.53 309.14 217.68 310.59 213.76 310.89C208.51 311.19 203.23 309.29 197.92 305.21L163.28 278.58L171.88 267.39L205.81 293.47C209.24 296.11 212.54 297.23 215.66 296.85C218.79 296.45 221.41 294.91 223.5 292.18C226.26 288.6 227.42 285.3 227.03 282.3C226.61 279.29 224.77 276.52 221.46 273.98L187.11 247.57L195.75 236.33ZM121.81 310L138.5 306.63L133.88 315.86L124.52 317.73L128.62 326.36L124.02 335.54L116.71 320.19L121.81 310ZM188.63 368.61L182.12 381.61L133.69 331.05L140.86 316.73L210.18 325.59L203.52 338.89L189.47 336.58L178.52 358.43L188.63 368.61ZM177.55 334.93L150.5 330.64L169.98 350.04L177.55 334.93ZM137.02 373.66L132.69 386.73C129.37 386.59 126.75 386.94 124.89 387.74C121.37 389.22 118.85 392.29 117.31 396.94C115.97 401 116.26 404.85 118.22 408.48C120.79 413.34 126.11 417.1 134.13 419.75C140.24 421.77 145.57 422.22 150.14 421.08C155.37 419.76 158.84 416.48 160.57 411.26C161.76 407.66 161.76 404.31 160.53 401.23C159.31 398.15 156.94 395.61 153.42 393.59L157.75 380.52C164.4 384.25 169 388.97 171.55 394.67C174.34 400.88 174.48 407.8 171.95 415.41C169.13 423.95 164.07 429.87 156.77 433.16C149.14 436.62 140.06 436.6 129.53 433.12C118.94 429.61 111.6 424.08 107.51 416.52C103.68 409.46 103.14 401.74 105.92 393.36C108.76 384.76 113.56 378.73 120.31 375.31C126.03 372.41 131.6 371.86 137.02 373.66Z" />
	</g>
</svg>